<?xml version="1.0" standalone="no"?>
<!DOCTYPE svg PUBLIC "-//W3C//DTD SVG 20010904//EN"
 "http://www.w3.org/TR/2001/REC-SVG-20010904/DTD/svg10.dtd">
<svg version="1.0" xmlns="http://www.w3.org/2000/svg"
 width="300.000000pt" height="300.000000pt" viewBox="0 0 300.000000 300.000000"
 preserveAspectRatio="xMidYMid meet">
<metadata>
Created by potrace 1.11, written by Peter Selinger 2001-2013
</metadata>
<g transform="translate(0.000000,300.000000) scale(0.100000,-0.100000)"
fill="#000000" stroke="none">
<path d="M310 2858 c0 -6 -3 -9 -6 -5 -4 3 -21 -1 -38 -10 -38 -20 -98 -78
-89 -87 3 -3 2 -6 -3 -6 -13 0 -37 -67 -29 -80 3 -5 1 -10 -6 -10 -8 0 -9 -14
-4 -47 10 -68 10 -66 23 -89 6 -12 8 -24 5 -28 -3 -3 -1 -6 6 -6 7 0 9 -4 6
-10 -3 -5 -2 -10 4 -10 6 0 17 -13 26 -29 8 -16 20 -35 27 -43 36 -37 125
-198 111 -198 -5 0 -2 -4 4 -8 13 -8 76 -172 66 -172 -3 0 0 -7 7 -15 6 -8 9
-19 5 -25 -3 -5 -2 -10 4 -10 5 0 8 -8 6 -17 -1 -10 1 -22 5 -28 4 -5 11 -30
14 -55 7 -49 14 -85 16 -85 1 0 4 -22 6 -50 8 -71 11 -445 4 -445 -3 0 -6 -17
-7 -38 -1 -21 -10 -71 -18 -112 -9 -41 -19 -86 -21 -99 -3 -14 -8 -29 -12 -35
-4 -6 -7 -19 -8 -28 -1 -10 -2 -19 -4 -20 -1 -2 -3 -10 -5 -18 -16 -72 -143
-317 -187 -361 -47 -46 -102 -209 -82 -241 4 -7 9 -22 10 -35 2 -13 12 -36 23
-52 11 -15 18 -31 14 -35 -3 -3 -2 -6 3 -6 5 0 24 -13 43 -29 19 -16 48 -32
65 -37 43 -10 148 -12 166 -4 8 4 36 18 63 30 26 13 47 27 47 31 0 4 16 16 35
25 19 9 35 20 35 25 0 5 9 9 21 9 12 0 18 4 13 11 -4 7 -1 10 7 7 13 -4 21 0
54 30 8 7 15 11 15 8 0 -3 17 3 38 14 43 22 91 42 111 46 8 1 17 6 20 11 3 4
11 8 16 8 6 1 30 7 55 14 25 7 53 15 62 17 10 2 27 6 38 8 11 3 25 8 30 11 6
3 10 0 10 -7 0 -10 2 -10 9 0 4 8 11 13 15 13 3 -1 7 0 9 0 1 1 16 3 32 4 17
2 30 4 30 5 0 4 75 12 127 13 31 1 54 6 51 10 -3 5 3 4 14 -1 10 -6 25 -7 34
-2 8 5 21 5 29 0 7 -4 24 -4 37 1 15 6 23 5 23 -2 0 -8 5 -7 15 1 12 10 15 10
15 0 0 -9 3 -10 13 -1 8 6 16 8 20 5 11 -11 57 -11 57 0 0 7 3 7 8 1 8 -12 15
-13 79 -19 27 -3 66 -8 88 -11 22 -4 47 -7 55 -7 8 -1 21 -5 28 -11 6 -5 12
-6 12 -2 0 4 7 2 15 -5 12 -10 15 -10 15 1 0 12 2 12 9 1 4 -8 11 -13 15 -13
17 2 67 -13 72 -20 3 -5 9 -7 14 -4 5 3 22 -1 38 -9 16 -8 32 -12 36 -9 3 4 6
1 6 -6 0 -7 4 -10 9 -6 5 3 15 0 23 -7 7 -7 20 -14 28 -16 8 -2 24 -11 34 -20
15 -13 17 -13 11 -2 -7 12 -6 13 7 3 8 -7 18 -10 21 -6 4 3 7 2 7 -3 0 -5 17
-18 38 -29 20 -11 42 -24 49 -30 7 -5 19 -16 28 -23 8 -7 15 -10 15 -7 0 5 29
-17 56 -43 8 -7 14 -10 14 -6 0 4 9 -1 20 -11 11 -10 20 -15 20 -10 0 4 6 2
13 -4 8 -6 17 -8 20 -4 4 3 7 2 7 -4 0 -6 31 -10 78 -10 59 0 82 4 101 19 13
10 30 18 37 18 8 0 14 7 14 15 0 8 5 14 11 12 6 -1 16 7 22 18 7 11 15 22 18
25 20 15 40 91 38 140 -2 54 -35 147 -61 174 -7 7 -20 24 -28 36 -8 12 -19 28
-25 34 -43 49 -152 291 -170 381 -5 21 -8 31 -16 52 -11 31 -37 182 -45 273
-11 118 -5 360 11 442 3 13 7 37 10 53 3 17 8 44 11 60 3 17 6 38 7 48 1 9 4
17 8 17 3 0 9 21 13 46 3 26 10 52 16 59 5 6 11 20 13 31 6 35 31 94 40 94 4
0 5 5 2 10 -3 6 -1 10 4 10 6 0 10 3 9 8 -3 11 49 115 69 138 10 11 19 26 21
33 1 7 13 23 26 36 39 39 77 128 83 194 5 49 1 71 -17 113 -22 53 -67 103
-102 114 -10 3 -18 10 -18 15 0 5 -3 8 -7 8 -5 -1 -10 0 -13 1 -12 6 -137 9
-150 3 -8 -3 -18 -7 -22 -8 -5 -2 -10 -4 -13 -5 -3 -1 -8 -3 -12 -4 -18 -3
-98 -56 -134 -88 -10 -10 -19 -16 -19 -13 0 3 -25 -11 -55 -30 -30 -20 -55
-33 -55 -29 0 4 -8 0 -18 -9 -10 -10 -22 -14 -25 -10 -4 3 -7 0 -7 -7 0 -7 -3
-10 -7 -7 -3 4 -15 -1 -26 -10 -15 -13 -18 -14 -12 -3 8 13 7 13 -8 1 -9 -7
-17 -10 -17 -5 0 5 -4 3 -8 -4 -5 -7 -17 -14 -28 -16 -10 -3 -38 -11 -62 -20
-23 -8 -46 -16 -50 -16 -15 -2 -58 -12 -72 -17 -8 -3 -25 -7 -36 -9 -12 -1
-39 -5 -60 -9 -61 -11 -94 -14 -171 -19 -40 -3 -77 -7 -83 -11 -5 -3 -10 -1
-10 5 0 8 -6 7 -21 -1 -16 -8 -20 -8 -14 1 6 9 2 9 -14 1 -16 -9 -21 -9 -21 0
0 8 -4 9 -13 0 -10 -8 -17 -7 -25 1 -7 7 -12 8 -12 2 0 -6 -10 -10 -22 -8 -13
1 -23 3 -23 4 0 2 -105 11 -157 13 -21 1 -38 5 -38 8 0 3 -12 7 -27 7 -28 2
-68 9 -68 12 0 2 -31 7 -72 12 -7 1 -13 5 -13 9 0 4 -11 6 -25 5 -13 -2 -23 0
-21 3 2 3 -18 13 -44 22 -28 8 -46 11 -42 5 5 -9 -22 8 -38 24 -3 3 -9 5 -15
6 -20 1 -95 37 -95 46 0 4 -8 8 -19 8 -10 0 -24 7 -31 15 -7 8 -17 15 -23 15
-11 0 -118 78 -129 94 -4 6 -8 7 -8 3 0 -5 -12 -1 -27 7 -48 25 -66 30 -135
32 -44 2 -68 -1 -68 -8z"/>
</g>
</svg>
